<?xml version="1.0" encoding="utf-8"?>
<!-- Generator: Adobe Illustrator 24.3.0, SVG Export Plug-In . SVG Version: 6.00 Build 0)  -->
<svg version="1.1" id="Ebene_1" xmlns="http://www.w3.org/2000/svg" xmlns:xlink="http://www.w3.org/1999/xlink" x="0px" y="0px"
	 viewBox="0 0 2534 486" style="enable-background:new 0 0 2534 486;" xml:space="preserve">
<style type="text/css">
	.st0{fill:#FFFFFF;}
</style>
<g>
	<path class="st0" d="M334.07,74.46h-50.5c-0.92,0-1.44,1.06-0.88,1.79l20.41,26.56c2.87,3.74-0.29,9.07-4.95,8.33l-84.03-13.27
		c-0.54-0.09-0.94-0.55-0.94-1.1V79.18c0-2.61-2.11-4.72-4.72-4.72h-24.62c-1.84,0-3.33-1.49-3.33-3.33v-29.1
		c0-3.18,2.16-5.96,5.25-6.74l35.59-9c2.22-0.56,2.47-3.62,0.37-4.54l-48.48-21.1c-2.02-0.88-4.29,0.6-4.29,2.81v67.67
		c0,1.84-1.49,3.33-3.33,3.33h-27.84c-2.61,0-4.72,2.11-4.72,4.72v17.98c0,0.55-0.4,1.01-0.94,1.1l-81.24,12.82
		c-5.66,0.89-9.51-5.59-6.02-10.13l18.98-24.7c0.56-0.73,0.04-1.79-0.88-1.79H15.83c-8.59,0-15.55,6.96-15.55,15.55v61.13
		c0,0.29,0.12,0.58,0.33,0.79l62.09,52.09c0.23,0.23,0.35,0.54,0.32,0.87L44.45,468.2c-0.69,9.38,6.73,17.36,16.14,17.36h47.77
		c6.96,0,13.38-3.71,16.87-9.73l42.03-72.6c3.52-6.08,12.31-6.08,15.83,0l42.03,72.6c3.48,6.02,9.91,9.73,16.87,9.73h47.78
		c9.4,0,16.82-7.99,16.14-17.36l-17.64-250.76c-0.04-0.51-0.41-0.92-0.91-1.01c-41.45-7.43-87.95-13.59-109.7-16.33
		c-1.35-0.17-1.27-2.15,0.09-2.21c46.52-2.1,82.18,0.96,109.26,6.15c0.36,0.07,0.73-0.05,0.99-0.3l61.3-51.3
		c0.21-0.21,0.33-0.49,0.33-0.79V90.01C349.62,81.42,342.66,74.46,334.07,74.46z M177.85,247.26l27.06,47.57
		c2.02,3.55,2.02,7.91,0,11.46l-27.06,47.57c-1.18,2.07-4.17,2.07-5.35,0l-27.06-47.57c-2.02-3.55-2.02-7.91,0-11.46l27.06-47.57
		C173.68,245.19,176.67,245.19,177.85,247.26z"/>
	<g>
		<path class="st0" d="M673.15,118.35h71.9c2.15,0,3.84,0.62,5.07,1.84c1.22,1.23,1.84,2.92,1.84,5.07v308.79
			c0,2.15-0.62,3.85-1.84,5.07c-1.23,1.23-2.92,1.84-5.07,1.84h-72.82c-2.15,0-3.85-0.61-5.07-1.84c-1.23-1.22-1.84-2.92-1.84-5.07
			v-167.3c0-1.22-0.31-1.92-0.92-2.07c-0.62-0.15-1.23,0.23-1.84,1.15l-31.34,51.16c-1.84,3.07-4.61,4.61-8.3,4.61h-35.03
			c-3.69,0-6.45-1.53-8.3-4.61l-31.34-51.16c-0.62-0.92-1.23-1.3-1.84-1.15c-0.62,0.16-0.92,0.85-0.92,2.07v167.3
			c0,2.15-0.62,3.85-1.84,5.07c-1.23,1.23-2.92,1.84-5.07,1.84h-72.82c-2.15,0-3.85-0.61-5.07-1.84c-1.23-1.22-1.84-2.92-1.84-5.07
			V125.26c0-2.15,0.61-3.84,1.84-5.07c1.22-1.22,2.92-1.84,5.07-1.84h71.9c3.69,0,6.45,1.54,8.3,4.61l58.07,93.56
			c0.92,1.84,1.84,1.84,2.77,0l58.07-93.56C666.7,119.89,669.46,118.35,673.15,118.35z"/>
		<path class="st0" d="M789.75,439.13c-1.23-1.22-1.84-2.92-1.84-5.07V125.26c0-2.15,0.61-3.84,1.84-5.07
			c1.22-1.22,2.92-1.84,5.07-1.84h72.82c2.15,0,3.84,0.62,5.07,1.84c1.22,1.23,1.84,2.92,1.84,5.07v308.79
			c0,2.15-0.62,3.85-1.84,5.07c-1.23,1.23-2.92,1.84-5.07,1.84h-72.82C792.67,440.97,790.97,440.36,789.75,439.13z"/>
		<path class="st0" d="M1093.01,120.19c1.22-1.22,2.92-1.84,5.07-1.84h72.82c2.15,0,3.84,0.62,5.07,1.84
			c1.22,1.23,1.84,2.92,1.84,5.07v308.79c0,2.15-0.62,3.85-1.84,5.07c-1.23,1.23-2.92,1.84-5.07,1.84h-69.59
			c-3.69,0-6.45-1.53-8.3-4.61l-94.02-156.7c-0.62-0.92-1.23-1.3-1.84-1.15c-0.62,0.16-0.92,0.85-0.92,2.07l0.92,153.48
			c0,2.15-0.62,3.85-1.84,5.07c-1.23,1.23-2.92,1.84-5.07,1.84h-72.82c-2.15,0-3.85-0.61-5.07-1.84c-1.23-1.22-1.84-2.92-1.84-5.07
			V125.26c0-2.15,0.61-3.84,1.84-5.07c1.22-1.22,2.92-1.84,5.07-1.84h69.59c3.69,0,6.45,1.54,8.3,4.61l93.56,156.7
			c0.61,0.92,1.22,1.31,1.84,1.15c0.61-0.15,0.92-0.84,0.92-2.07l-0.46-153.48C1091.17,123.12,1091.78,121.42,1093.01,120.19z"/>
		<path class="st0" d="M1445.58,190.71c-1.23,1.23-2.92,1.84-5.07,1.84h-137.8c-1.54,0-2.3,0.77-2.3,2.3v43.32
			c0,1.54,0.76,2.3,2.3,2.3h85.26c2.15,0,3.84,0.62,5.07,1.84c1.22,1.23,1.84,2.92,1.84,5.07v59.92c0,2.15-0.62,3.85-1.84,5.07
			c-1.23,1.23-2.92,1.84-5.07,1.84h-85.26c-1.54,0-2.3,0.77-2.3,2.3v47.93c0,1.54,0.76,2.3,2.3,2.3h137.8
			c2.15,0,3.84,0.62,5.07,1.84c1.22,1.23,1.84,2.92,1.84,5.07v60.38c0,2.15-0.62,3.85-1.84,5.07c-1.23,1.23-2.92,1.84-5.07,1.84
			h-219.84c-2.15,0-3.85-0.61-5.07-1.84c-1.23-1.22-1.84-2.92-1.84-5.07V125.26c0-2.15,0.61-3.84,1.84-5.07
			c1.22-1.22,2.92-1.84,5.07-1.84h219.84c2.15,0,3.84,0.62,5.07,1.84c1.22,1.23,1.84,2.92,1.84,5.07v60.38
			C1447.43,187.79,1446.81,189.48,1445.58,190.71z"/>
		<path class="st0" d="M1705.52,156.6h-163.15c-1.23,0-1.84,0.62-1.84,1.84v99.09c0,1.23,0.61,1.84,1.84,1.84h112
			c3.07,0,4.61,1.54,4.61,4.61v29.04c0,3.07-1.54,4.61-4.61,4.61h-112c-1.23,0-1.84,0.62-1.84,1.84v136.88
			c0,3.07-1.54,4.61-4.61,4.61h-35.03c-3.07,0-4.61-1.53-4.61-4.61v-313.4c0-3.07,1.53-4.61,4.61-4.61h204.63
			c3.07,0,4.61,1.54,4.61,4.61v29.04C1710.13,155.07,1708.59,156.6,1705.52,156.6z"/>
		<path class="st0" d="M1800.92,431.29c-17.21-9.22-30.58-22.19-40.1-38.94c-9.53-16.74-14.29-36.02-14.29-57.84V224.81
			c0-21.81,4.76-41.02,14.29-57.61c9.52-16.59,22.89-29.5,40.1-38.71c17.2-9.22,37.02-13.83,59.45-13.83
			c22.73,0,42.7,4.61,59.92,13.83c17.2,9.22,30.57,22.12,40.1,38.71c9.52,16.59,14.29,35.8,14.29,57.61V334.5
			c0,21.82-4.77,41.1-14.29,57.84c-9.53,16.75-22.89,29.73-40.1,38.94c-17.21,9.22-37.18,13.83-59.92,13.83
			C1837.94,445.12,1818.12,440.51,1800.92,431.29z M1911.07,387.51c12.9-12.9,19.36-29.96,19.36-51.16v-112
			c0-21.5-6.45-38.79-19.36-51.85c-12.9-13.06-29.81-19.59-50.7-19.59c-20.9,0-37.72,6.53-50.47,19.59
			c-12.75,13.06-19.13,30.35-19.13,51.85v112c0,21.2,6.37,38.25,19.13,51.16c12.75,12.9,29.57,19.36,50.47,19.36
			C1881.27,406.86,1898.17,400.41,1911.07,387.51z"/>
		<path class="st0" d="M2220.78,437.74l-64.52-137.8c-0.31-0.92-0.92-1.38-1.84-1.38h-66.37c-1.23,0-1.84,0.62-1.84,1.84v135.96
			c0,3.07-1.54,4.61-4.61,4.61h-35.03c-3.07,0-4.61-1.53-4.61-4.61v-313.4c0-3.07,1.53-4.61,4.61-4.61h123.98
			c18.44,0,34.64,3.85,48.62,11.52c13.98,7.68,24.81,18.44,32.49,32.26c7.68,13.83,11.52,29.81,11.52,47.93
			c0,21.51-5.61,39.72-16.82,54.62c-11.22,14.91-26.81,24.97-46.78,30.19c-1.23,0.62-1.54,1.38-0.92,2.3l66.83,138.27
			c0.3,0.62,0.46,1.38,0.46,2.3c0,2.15-1.23,3.23-3.69,3.23h-36.41C2223.39,440.97,2221.71,439.9,2220.78,437.74z M2086.21,158.45
			v103.24c0,1.23,0.61,1.84,1.84,1.84h76.97c16.28,0,29.34-4.84,39.17-14.52c9.83-9.68,14.75-22.5,14.75-38.48
			c0-16.28-4.92-29.34-14.75-39.18c-9.84-9.83-22.89-14.75-39.17-14.75h-76.97C2086.82,156.6,2086.21,157.22,2086.21,158.45z"/>
		<path class="st0" d="M2533.73,122.96v29.5c0,3.07-1.54,4.61-4.61,4.61h-88.49c-1.23,0-1.84,0.62-1.84,1.84v277.45
			c0,3.07-1.54,4.61-4.61,4.61h-35.03c-3.07,0-4.61-1.53-4.61-4.61V158.91c0-1.22-0.62-1.84-1.84-1.84h-84.34
			c-3.07,0-4.61-1.53-4.61-4.61v-29.5c0-3.07,1.53-4.61,4.61-4.61h220.76C2532.18,118.35,2533.73,119.89,2533.73,122.96z"/>
	</g>
</g>
</svg>
